Love for All and Sharing is the first step to solving all the problems of humanity.

Websites I want to share.

    
http://www.shareintl.org/

    
http://www.lightmiddleway.com


Thank you very much

No credit for me...credit to EVERYONE for sharing
 
http://thepiratebay.org/user/raymondhome/

PLOT
Woody, Buzz, and the rest of their toy-box friends are dumped in a day-care center after their owner, Andy, departs for college.

IMDb RATING: 9.5/10 (1,701 votes)

Language: English
Source Video:Relizlab.Thanks
Source Audio:Ice/Prism.Thanks
Encoder: Tony2
...............................................
General
Duration : 1h 34mn
Overall bit rate : 2 625 Kbps
...............................................
Video
Format : S-Mpeg 4 v2
Codec ID : MP42
Codec ID/Info : Microsoft MPEG-4 V2
Duration : 1h 34mn
Bit rate : 1 200 Kbps
Width : 704 pixels
Height : 304 pixels
Display aspect ratio : 2.35:1
Frame rate : 25.000 fps
Resolution : 24 bits
Bits/(Pixel*Frame) : 0.224
Stream size : 808 MiB (46%)
...............................................
Audio
Format : PCM
Format settings, Endianness : Little
Format settings, Sign : Unsigned
Codec ID : 1
Codec ID/Hint : Microsoft
Duration : 1h 34mn
Bit rate mode : Constant
Bit rate : 1 411.2 Kbps
Channel(s) : 2 channels
Sampling rate : 44.1 KHz
Resolution : 16 bits
Stream size : 950 MiB (54%)
Interleave, duration : 24 ms (0.60 video frame)
Interleave, preload duration : 23 ms

credit FEEL-FREE & pitic BIG BIG BIG TIME & to all the people who made it possible for us to share this...especially EVERYONE involve in the production of the movie...IF YOU LIKE IT...BUY IT :)

*****help what we can with others in need...the world is ONE big family*****